<?xml version="1.0" encoding="utf-8"?>
<!-- Generator: Adobe Illustrator 22.0.1, SVG Export Plug-In . SVG Version: 6.00 Build 0)  -->
<svg version="1.1" id="Logotipo_Anaranjado" xmlns="http://www.w3.org/2000/svg" xmlns:xlink="http://www.w3.org/1999/xlink"
	 x="0px" y="0px" viewBox="0 0 667.8 670.3" style="enable-background:new 0 0 667.8 670.3;" xml:space="preserve">
<style type="text/css">
	.st0{fill:#FF6900;}
</style>
<g>
	<g>
		<polygon class="st0" points="654,658.7 13.9,658.7 13.9,545.3 31.9,545.3 31.9,640.6 635.9,640.6 635.9,29.7 31.9,29.7 31.9,126 
			13.9,126 13.9,11.6 654,11.6 		"/>
	</g>
	<g>
		<g>
			<g>
				<g>
					<path class="st0" d="M71.2,297.1h45.7v32.3H33.1V182.6h38.1V297.1z"/>
				</g>
				<g>
					<path class="st0" d="M185.5,303.9l-10.1,25.5h-40.5l56.4-146.8H233l55.3,146.8h-40.7l-9.5-25.5H185.5z M212.1,228h-0.4
						l-15.8,46.7h31.7L212.1,228z"/>
				</g>
				<g>
					<path class="st0" d="M306.6,329.4V182.6h54.5c26.1,0,43.6,10.1,43.6,38.2c0,13.2-4.3,23.9-16.2,30v0.4c21,2.7,30,16.9,30,37.4
						c0,30.8-26.3,40.9-53.1,40.9h-58.8V329.4z M344.9,240.2h4.3c10.1,0,20.6-1.8,20.6-14.2c0-13.4-11.9-14.2-22.2-14.2h-2.7
						L344.9,240.2L344.9,240.2z M344.9,300.2h4.9c11.3,0,30.4,0.6,30.4-15.6c0-17.7-18.9-16-31.3-16H345v31.6H344.9z"/>
				</g>
			</g>
		</g>
	</g>
	<g>
		<g>
			<g>
				<path class="st0" d="M56.4,380.5H32.6v-14.9h38.2v143.7H56.4V380.5z"/>
			</g>
			<g>
				<path class="st0" d="M98.8,488.9l9.6-11.7c11.3,12.1,23.6,19.7,36.8,19.7c18.5,0,31.2-13.5,31.2-31.8v-0.4
					c0-17.9-11.5-31.4-32.1-32.5c-7.9-0.4-16.8,1.4-24.3,5.9l-12.6,0.1l0.2-72.7h75.2v15h-61l-0.6,41.4c7.6-3.7,17.3-4.7,25.5-4.6
					c25.1,0.2,44.7,19.5,44.7,46.8v0.4c0,28.1-19.2,47.2-46.2,47.2C126.6,511.7,110.5,501.8,98.8,488.9z"/>
			</g>
			<g>
				<path class="st0" d="M325.9,488.9l9.6-11.7c11.3,12.1,23.6,19.7,36.8,19.7c18.5,0,31.2-13.5,31.2-31.8v-0.4
					c0-17.9-11.5-31.4-32.1-32.5c-7.9-0.4-16.8,1.4-24.3,5.9l-12.6,0.1l0.2-72.7h75.2v15h-61l-0.6,41.4c7.6-3.7,17.3-4.7,25.5-4.6
					c25.1,0.2,44.7,19.5,44.7,46.8v0.4c0,28.1-19.2,47.2-46.2,47.2C353.6,511.7,337.6,501.8,325.9,488.9z"/>
			</g>
		</g>
		<g>
			<path class="st0" d="M296.5,382.5L296.5,382.5c-8.8-13-21.6-19.6-38.1-19.6c-16.4,0-29.2,6.6-38,19.6
				c-8.7,12.8-13.1,31.3-13.1,54.9s4.4,42.1,13.1,55c8.8,13.1,21.6,19.7,38,19.7c16.5,0,29.3-6.6,38.1-19.8c8.6-12.9,13-31.4,13-55
				C309.5,413.8,305.1,395.3,296.5,382.5z M294,437.4c0,19.8-3.1,34.9-9.3,45c-6.1,9.9-14.7,14.7-26.3,14.7
				c-11.6,0-20.2-4.8-26.2-14.7c-6.1-10.1-9.2-25.2-9.2-45s3.1-34.9,9.2-45c6-9.9,14.6-14.7,26.2-14.7c11.6,0,20.2,4.8,26.3,14.7
				C290.9,402.5,294,417.6,294,437.4z"/>
		</g>
	</g>
</g>
</svg>
