<?xml version="1.0" encoding="utf-8"?>
<!-- Generator: Adobe Illustrator 22.0.1, SVG Export Plug-In . SVG Version: 6.00 Build 0)  -->
<svg version="1.1" id="Capa_1" xmlns="http://www.w3.org/2000/svg" xmlns:xlink="http://www.w3.org/1999/xlink" x="0px" y="0px"
	 viewBox="0 0 737 166.5" style="enable-background:new 0 0 737 166.5;" xml:space="preserve">
<style type="text/css">
	.st0{fill:#040006;}
	.st1{fill:#EB6E00;}
</style>
<g>
	<path class="st0" d="M184.8,21.5H155v76.5h23.5V73.8h5.6c10.8,0,19-3,24.6-9.1c4.3-4.7,6.5-10.2,6.5-16.4c0-8.4-2.5-14.9-7.6-19.5
		C202.3,23.9,194.7,21.5,184.8,21.5 M183.1,58.1h-4.6V39.3h4.9c5.8,0,8.7,3,8.7,9.1C192,54.9,189.1,58.1,183.1,58.1 M275.4,64v-0.2
		c9.6-2.9,14.3-9.7,14.3-20.3c0-6.1-2-11-6.1-14.8c-5.1-4.8-13-7.2-23.6-7.2H227v76.5h23.5V71.9h4.8c1.4,0.6,7,9.3,17,26.1h25.7
		C284.5,76.3,276.9,65,275.4,64 M264.3,54.2c-1.5,1.6-3.5,2.4-6,2.4h-7.9V39.2h7.1c2.9,0,5.2,0.9,6.7,2.6c1.5,1.7,2.3,3.8,2.3,6.2
		C266.5,50.5,265.8,52.6,264.3,54.2 M344,20.2c-12.3,0-22.2,3.7-29.6,11c-7.4,7.3-11.1,16.9-11.1,28.7c0,11.9,3.6,21.5,10.9,28.7
		c7.3,7.3,17.1,10.9,29.5,10.9c12.3,0,22.2-3.7,29.6-11c7.4-7.3,11.1-16.9,11.1-28.7c0-11.9-3.6-21.4-10.9-28.7
		C366.2,23.9,356.4,20.2,344,20.2 M356,76c-3,3.9-7.1,5.8-12.3,5.8c-5.2,0-9.3-1.9-12.3-5.8c-3-3.9-4.5-9.2-4.5-16.1
		c0-6.8,1.5-12.2,4.5-16.1c3-3.9,7.1-5.8,12.3-5.8c5.2,0,9.3,1.9,12.3,5.8c3,3.9,4.5,9.2,4.5,16.1C360.5,66.8,359,72.1,356,76
		 M451,36.8c-5.2,7.5-9,13.4-11.4,17.8h-0.1c-1.9-3.4-6-9.2-12-17.6l-11.2-15.4h-19.5v76.5H420V57.3h0.1c2.8,4.4,5.2,8,7.1,10.9
		l7.7,11.2h9.7l7.8-11.2c3.1-4.5,5.5-8.3,7.1-11.3v41.3h23.2V21.5h-21.1L451,36.8z M523.6,21.2l-32.4,76.9h23.7l5.7-14.3h23.8
		l5.7,14.3h24.6l-32.8-76.9H523.6z M525.9,67.2l3.7-10.4c1.1-3.1,2-5.9,2.6-8.3h0.3c1.1,3.8,2,6.6,2.6,8.3l3.5,10.4H525.9z
		 M633.2,64v-0.2c9.6-2.9,14.3-9.7,14.3-20.3c0-6.1-2-11-6.1-14.8c-5.1-4.8-13-7.2-23.6-7.2h-32.9v76.5h23.5V71.9h4.8
		c1.4,0.6,7,9.3,17,26.1h25.7C642.2,76.3,634.7,65,633.2,64 M622.1,54.2c-1.5,1.6-3.5,2.4-6,2.4h-7.9V39.2h7.1
		c2.9,0,5.2,0.9,6.7,2.6c1.5,1.7,2.3,3.8,2.3,6.2C624.3,50.5,623.6,52.6,622.1,54.2 M656.9,21.5v18.9H679v57.6h23.8V40.4h20.6
		l4.4-18.9H656.9z"/>
	<path class="st1" d="M105.7,81.5H18.4c-3.2,0-5.9,0.9-7.7,2.9C8.9,86.2,8,88.7,8,91.6c0,3,0.9,5.5,2.7,7.2c1.9,1.9,4.5,2.8,7.6,2.8
		h87.3c3.2,0,5.9-0.9,7.7-2.9c1.8-1.9,2.7-4.4,2.7-7.2c0-3-0.9-5.5-2.8-7.4C111.5,82.4,108.8,81.5,105.7,81.5 M114.9,22.5
		c-1.8-1.8-4.3-2.7-7.2-2.7c-2.9,0-5.3,0.9-7.2,2.7c-2,1.8-2.9,4.6-2.9,7.7v4.2L60.9,3.5l0,0l-0.1-0.1L9.9,49.2
		c-2.2,2.2-3.5,4.7-3.5,7.3c0,0.1,0,0.2,0,0.3c0.1,2.5,1.2,4.9,3.2,6.9c2.1,2.1,4.5,3.2,7,3.2c2.7,0,5.2-1.2,7.5-3.5l36.8-33
		l39.3,33.1c2.1,2.2,4.7,3.4,7.4,3.4h0c2.5,0,5-1.1,7-3.2c1.7-1.7,2.8-3.7,3.1-5.9h0.1V30.2C117.8,27,116.8,24.4,114.9,22.5"/>
	<g>
		<path class="st0" d="M180.7,155h-5.5v-12.9h-14.6V155H155v-30.2h5.5v12.4h14.6v-12.4h5.5V155z"/>
		<path class="st0" d="M216.5,140.3c0-4.5,1.4-8.3,4.3-11.2c2.9-3,6.6-4.4,11.1-4.4c4.9,0,8.7,1.6,11.6,4.7
			c2.5,2.8,3.8,6.3,3.8,10.7c0,4.6-1.4,8.3-4.3,11.2c-2.9,2.9-6.6,4.3-11.1,4.3c-4.4,0-7.9-1.2-10.7-3.7
			C218.1,148.9,216.5,145.1,216.5,140.3z M241.4,140.1c0-3.3-0.9-5.9-2.6-7.9c-1.7-2-4-3-6.9-3c-2.9,0-5.2,1-6.9,2.9
			c-1.8,2-2.6,4.6-2.6,7.9c0,3.4,0.9,6,2.6,8c1.8,2,4.1,2.9,6.9,2.9c2.8,0,5.1-1,6.9-2.9C240.5,146.1,241.4,143.4,241.4,140.1z"/>
		<path class="st0" d="M313.5,155H308v-17.9c0-1.4,0-2.5,0-3.3c-0.2,0.5-0.8,1.6-1.8,3.1l-6.2,9.7h-2.7l-6.8-9.8
			c-0.4-0.6-1-1.6-1.8-3c0,0.8,0,1.9,0,3.1V155h-5.5v-30.2h5.2l8.3,12.1c0.8,1.2,1.5,2.3,2,3.2h0.1c0.5-1.1,1.1-2.2,1.9-3.4
			l7.7-11.9h5.2V155z"/>
		<path class="st0" d="M367.5,155h-16.8v-30.2h16.8l-1.5,4.6h-9.7v7.8h9.7v4.6h-9.7v8.5h11.3V155z"/>
		<path class="st0" d="M427.2,152.7c-3.1,1.9-6.4,2.8-9.8,2.8c-4.7,0-8.4-1.5-11.2-4.4c-2.7-2.8-4-6.4-4-10.8
			c0-4.4,1.5-8.1,4.4-11.1c3.1-3.1,7-4.6,11.9-4.6c3.2,0,5.8,0.5,7.8,1.6l0,5c-2.4-1.4-4.9-2.2-7.6-2.2c-3.3,0-5.9,1.1-7.8,3.3
			c-1.8,2-2.7,4.5-2.7,7.5c0,3.1,0.9,5.7,2.7,7.7c1.8,2,4.3,3.1,7.3,3.1c2.5,0,4.9-0.7,7.4-2L427.2,152.7z"/>
		<path class="st0" d="M479.3,155h-16.8v-30.2h16.8l-1.5,4.6h-9.7v7.8h9.7v4.6h-9.7v8.5h11.3V155z"/>
		<path class="st0" d="M542.7,155h-5.1l-13.7-17.7c-1.2-1.5-2.2-2.9-3-4.2l-0.1,0.1c0.1,0.8,0.1,2.1,0.1,4V155h-5.5v-30.2h5.6
			l13.1,17c1.4,1.8,2.3,3.2,2.9,4.2c0-1.1,0-2.6,0-4.4l0-16.8h5.5V155z"/>
		<path class="st0" d="M601.4,124.9l-1.3,4.6h-8.3V155h-5.5v-25.5h-8.7v-4.6H601.4z"/>
		<path class="st0" d="M652.5,155h-16.8v-30.2h16.8l-1.5,4.6h-9.7v7.8h9.7v4.6h-9.7v8.5h11.3V155z"/>
		<path class="st0" d="M710.9,155h-6.3c-3.1-5.1-4.8-8-5.3-8.7c-1.3-2-2.1-3-2.7-3.2h-2.6V155h-5.5v-30.2h8.1c3.7,0,6.5,0.8,8.3,2.5
			c1.6,1.5,2.5,3.5,2.5,6c0,1.9-0.6,3.6-1.7,5c-1,1.3-2.2,2.2-3.8,2.9v0c0.6,0.3,1.7,1.8,3.3,4.3C706,146.8,707.9,150,710.9,155z
			 M701.9,134c0-1.3-0.4-2.4-1.3-3.2c-0.9-0.8-2.1-1.3-3.8-1.3h-2.7v9.4h2.8c1.4,0,2.6-0.5,3.5-1.4
			C701.4,136.6,701.9,135.4,701.9,134z"/>
	</g>
</g>
</svg>
